<svg width="18" height="18" viewBox="0 0 18 18" fill="none" xmlns="http://www.w3.org/2000/svg">
<path fill-rule="evenodd" clip-rule="evenodd" d="M9 0C4.02944 0 0 4.02944 0 9C0 13.9706 4.02944 18 9 18C13.9706 18 18 13.9706 18 9C18 4.02944 13.9706 0 9 0ZM7.5 7C7.5 6.17157 8.17157 5.5 9 5.5C9.82843 5.5 10.5 6.17157 10.5 7C10.5 7.82843 9.82843 8.5 9 8.5C8.58579 8.5 8.25 8.83579 8.25 9.25V10.25C8.25 10.6642 8.58579 11 9 11C9.41421 11 9.75 10.6642 9.75 10.25V9.90549C11.0439 9.57245 12 8.39788 12 7C12 5.34315 10.6569 4 9 4C7.34315 4 6 5.34315 6 7C6 7.41421 6.33579 7.75 6.75 7.75C7.16421 7.75 7.5 7.41421 7.5 7ZM9.75 12.75C9.75 12.3358 9.41421 12 9 12C8.58579 12 8.25 12.3358 8.25 12.75V13.25C8.25 13.6642 8.58579 14 9 14C9.41421 14 9.75 13.6642 9.75 13.25V12.75Z" fill="#525463"/>
</svg>
