<svg width="86" height="86" viewBox="0 0 86 86" fill="none" xmlns="http://www.w3.org/2000/svg">
<path opacity="0.1" fill-rule="evenodd" clip-rule="evenodd" d="M42.8214 83C20.8287 83 3 65.0916 3 43C3 20.9086 20.8287 3 42.8214 3C64.8144 3 82.6429 20.9086 82.6429 43C82.6429 65.0916 64.8144 83 42.8214 83ZM60.2097 26.3341C59.2827 26.3464 56.9235 26.7534 52.8631 29.8209C52.7153 29.9327 52.5653 30.0479 52.4131 30.1668C51.9821 30.5038 51.4189 30.6007 50.9083 30.4425L50.8977 30.4392C50.6402 30.3596 50.3822 30.2839 50.1238 30.2121C45.3218 28.878 40.3211 28.878 35.5191 30.2121C35.2474 30.2876 34.9757 30.3675 34.7054 30.4516L34.6996 30.4535C34.2063 30.6091 33.6687 30.5111 33.2615 30.1914C33.0983 30.0639 32.9377 29.9404 32.7796 29.821C28.717 26.7525 26.3477 26.3458 25.4146 26.334C24.5284 29.0828 24.4189 32.0971 25.1039 34.9262C25.1457 35.0987 25.1904 35.2702 25.238 35.4413L25.2474 35.4747C25.3868 35.9707 25.2844 36.5022 24.9735 36.9098C24.9036 37.0013 24.8346 37.0938 24.7668 37.1876C22.8247 39.8662 21.7591 43.3053 21.8061 46.8729L21.8062 46.8876C21.8062 54.3969 23.7475 58.8062 26.4263 61.4738C29.1265 64.1627 32.7517 65.26 36.4885 65.7702L36.6447 65.7916L36.6615 65.7938C40.8109 66.4169 44.7815 66.3782 48.9172 65.6729L48.9707 65.6653L49.0765 65.6524C52.833 65.1947 56.4753 64.1431 59.1898 61.4813C61.8809 58.8418 63.8365 54.4391 63.8365 46.8876L63.837 46.8729C63.8839 43.3053 62.818 39.8662 60.876 37.1876C60.8136 37.1013 60.7504 37.0164 60.6867 36.932L60.6818 36.9258C60.3637 36.508 60.2588 35.9636 60.4008 35.4556C60.4499 35.28 60.4955 35.104 60.5384 34.9267C61.2225 32.0957 61.1066 29.0795 60.2097 26.3341Z" fill="#FF7871"/>
<path d="M83.0022 43C83.0022 65.0916 65.1737 83 43.1808 83C21.1881 83 3.35938 65.0916 3.35938 43C3.35938 20.9086 21.1881 3 43.1808 3C65.1737 3 83.0022 20.9086 83.0022 43Z" fill="#FF7871" stroke="white" stroke-width="5"/>
<path d="M50.7747 29.1412C45.7798 27.7535 40.5756 27.7535 35.5807 29.1412C35.4953 29.1649 35.4099 29.189 35.3249 29.2137C34.8006 29.3652 34.2366 29.2622 33.8006 28.9329C28.546 24.9641 25.8013 25.1413 25.1221 25.2738C25.0129 25.2951 24.93 25.3769 24.8922 25.4819C24.8827 25.5085 24.8732 25.535 24.8638 25.5616C23.782 28.6224 23.6167 32.0139 24.3854 35.1889C24.4302 35.3737 24.478 35.5577 24.5291 35.7409C24.5325 35.7529 24.5358 35.7648 24.5392 35.7768C24.5835 35.9342 24.551 36.1035 24.4519 36.2337C24.3764 36.3324 24.3021 36.4324 24.2289 36.5333C22.1378 39.4173 21.0063 43.0946 21.0563 46.8875C21.0563 62.2884 29.0365 65.8257 36.6957 66.8715L36.8541 66.8924C41.1189 67.5328 45.2073 67.4933 49.4584 66.7684L49.5659 66.7555C57.2621 65.8173 65.2989 62.372 65.2989 46.8875C65.3489 43.0946 64.2176 39.4173 62.1265 36.5333C62.0593 36.4409 61.9911 36.3489 61.9221 36.2577L61.9168 36.2511C61.8097 36.1102 61.7743 35.9266 61.8221 35.756C61.8747 35.5675 61.9239 35.3786 61.9694 35.1889C62.7389 32.0049 62.5641 28.6033 61.4641 25.5411C61.4571 25.5223 61.4504 25.5036 61.4438 25.4848C61.4049 25.3779 61.3203 25.2945 61.2088 25.2729C60.5266 25.1406 57.797 24.9725 52.5548 28.9329C52.1189 29.262 51.5548 29.3643 51.0305 29.2135C50.9455 29.1889 50.8601 29.1649 50.7747 29.1412Z" fill="#FF7871" stroke="white" stroke-width="5" stroke-linecap="round" stroke-linejoin="round"/>
</svg>
